<svg xmlns="http://www.w3.org/2000/svg" width="100" height="100" viewBox="0 0 256 256" style="border-radius:4px">
  <g stroke-miterlimit="10" font-family="none" font-weight="none" font-size="none" text-anchor="none">
    <path d="M39.724 216.276V39.724h176.552v176.552z" transform="matrix(1.45 0 0 1.45 -57.6 -57.6)" fill="#fff" style="mix-blend-mode:normal"/>
    <g fill="none" style="mix-blend-mode:normal">
      <path d="M267.2 228.533a38.667 38.667 0 0 1-38.667 38.667H27.467A38.667 38.667 0 0 1-11.2 228.533V27.467A38.667 38.667 0 0 1 27.467-11.2h201.066A38.667 38.667 0 0 1 267.2 27.467z" fill="#0288d1"/>
      <path d="M35.2 89.333h38.667V220.8H35.2zm19.217-15.466h-.216c-11.538 0-19.001-8.6-19.001-19.341 0-10.974 7.695-19.326 19.442-19.326 11.762 0 19.008 8.352 19.225 19.326 0 10.733-7.463 19.34-19.45 19.34zM220.8 220.8h-38.667v-70.366c0-16.998-9.473-28.598-24.685-28.598-11.607 0-17.887 7.827-20.934 15.39-1.113 2.706-.78 10.192-.78 13.974v69.6H97.066V89.333h38.666v20.23c5.576-8.63 14.307-20.23 36.64-20.23 27.67 0 48.42 17.4 48.42 56.252l.007 75.215z" fill="#fff"/>
    </g>
  </g>
</svg>