<svg viewBox="0 0 24 24" fill="none" xmlns="http://www.w3.org/2000/svg"><g id="SVGRepo_bgCarrier" stroke-width="0"></g><g id="SVGRepo_tracerCarrier" stroke-linecap="round" stroke-linejoin="round"></g><g id="SVGRepo_iconCarrier"> <path fill-rule="evenodd" clip-rule="evenodd" d="M11.7 13.9998C12.777 13.9998 13.65 14.8952 13.65 15.9998C13.65 17.1043 12.777 17.9998 11.7 17.9998C10.623 17.9998 9.75 17.1043 9.75 15.9998C9.75 14.8952 10.623 13.9998 11.7 13.9998Z" stroke="#000000" stroke-width="1.5" stroke-linecap="round" stroke-linejoin="round"></path> <path d="M6.53734 11.4153C6.21454 11.6749 6.16328 12.147 6.42284 12.4698C6.68241 12.7926 7.15451 12.8438 7.47731 12.5843L6.53734 11.4153ZM15.9217 12.5843C16.2445 12.8438 16.7166 12.7926 16.9762 12.4698C17.2357 12.147 17.1845 11.6749 16.8617 11.4153L15.9217 12.5843ZM4.40719 8.91358C4.08343 9.17195 4.03042 9.64385 4.28878 9.96761C4.54714 10.2914 5.01905 10.3444 5.34281 10.086L4.40719 8.91358ZM18.0785 10.1024C18.4113 10.349 18.881 10.2791 19.1276 9.9463C19.3742 9.61349 19.3043 9.14379 18.9715 8.89719L18.0785 10.1024ZM7.47731 12.5843C9.95807 10.5895 13.441 10.5895 15.9217 12.5843L16.8617 11.4153C13.832 8.97915 9.56702 8.97915 6.53734 11.4153L7.47731 12.5843ZM5.34281 10.086C8.03641 7.9365 10.6227 7.52956 12.8154 7.84408C15.0378 8.16284 16.9034 9.23173 18.0785 10.1024L18.9715 8.89719C17.6808 7.94087 15.5835 6.72576 13.0284 6.35927C10.4437 5.98854 7.43782 6.4951 4.40719 8.91358L5.34281 10.086Z" fill="#000000"></path> </g></svg>